<svg width="84" height="395" viewBox="0 0 84 395" fill="none" xmlns="http://www.w3.org/2000/svg">
  <path
    d="M79.9212 80.7787V77.0958C79.9212 75.1753 78.3628 73.6177 76.4416 73.6177H7.12742C5.20585 73.6177 3.64746 75.1753 3.64746 77.0958V111.426C3.64746 113.346 5.20549 114.904 7.12742 114.904H76.4416C78.3628 114.904 79.9212 113.346 79.9212 111.437V95.456"
    stroke="black" stroke-width="0.731467" stroke-linecap="round" stroke-linejoin="round"/>
  <path
    d="M67.7979 106.626C67.7979 103.839 70.8089 102.001 73.2926 103.266C76.0111 104.67 76.0111 108.581 73.2926 109.986C70.8089 111.263 67.7979 109.412 67.7979 106.626Z"
    stroke="black" stroke-width="0.182867" stroke-linecap="round" stroke-linejoin="round"/>
  <path
    d="M64.0342 96.1873V110.686C64.0342 111.213 63.5774 111.67 63.05 111.67H7.86592C7.33853 111.67 6.88173 111.213 6.88173 110.686V78.2291C6.88173 77.7024 7.3389 77.2456 7.86592 77.2456H63.05C63.5774 77.2456 64.0342 77.7024 64.0342 78.2294V79.7981M3.50747 77.246H1.65613C1.30466 77.246 1 77.5503 1 77.9014V83.4865C1 83.8376 1.30466 84.1422 1.65613 84.1422H3.42518L3.50747 77.246Z"
    stroke="black" stroke-width="0.182867" stroke-miterlimit="10" stroke-linecap="round" stroke-linejoin="round"/>
  <path
    d="M17.0551 73.5029V73.4207C17.0551 73.1628 16.8441 72.9521 16.5863 72.9521H11.4196C11.1617 72.9521 10.9507 73.1628 10.9507 73.4203V73.5143L17.0551 73.5029ZM31.3725 73.5029V73.4207C31.3725 73.1628 31.1619 72.9521 30.904 72.9521H25.7369C25.4791 72.9521 25.2684 73.1628 25.2684 73.4203V73.5143L31.3725 73.5029ZM45.6778 73.5029V73.4207C45.6778 73.1628 45.4672 72.9521 45.2093 72.9521H40.0422C39.7848 72.9521 39.5737 73.1628 39.5737 73.4203V73.5143L45.6778 73.5029ZM59.9963 73.5029V73.4207C59.9963 73.1628 59.7853 72.9521 59.5274 72.9521H54.3607C54.1029 72.9521 53.8918 73.1628 53.8918 73.4203V73.5143"
    fill="black"/>
  <path
    d="M61.2795 92.3527C58.2801 85.023 63.6579 76.9085 71.5782 76.944C79.4985 76.9791 84.8763 85.023 81.8886 92.3527C77.9519 101.474 65.2046 101.474 61.2795 92.3527Z"
    stroke="black" stroke-width="0.731467" stroke-linecap="round" stroke-linejoin="round"/>
  <path
    d="M34.3035 317.12C34.3035 316.558 34.6797 316.273 35.0803 316.273C35.4808 316.273 35.8571 316.558 35.8571 317.12C35.8571 317.681 35.4808 317.969 35.0803 317.969C34.6797 317.969 34.3035 317.681 34.3035 317.12ZM34 317.12C34 317.839 34.5401 318.243 35.0803 318.243C35.6204 318.243 36.1606 317.839 36.1606 317.12C36.1606 316.401 35.6204 316 35.0803 316C34.5401 316 34 316.401 34 317.12ZM38.3139 318.197H38.6598L38.147 317.296C38.4717 317.235 38.6689 316.995 38.6689 316.686C38.6689 316.331 38.417 316.046 38.0104 316.046H37.2002V318.197H37.5006V317.317H37.8223L38.3139 318.197ZM37.5006 317.05V316.313H37.9558C38.1985 316.313 38.3624 316.458 38.3624 316.686C38.3624 316.907 38.1985 317.05 37.9558 317.05H37.5006ZM41.8397 318.243C42.2766 318.243 42.6135 317.969 42.6135 317.463V316.046H42.3161V317.454C42.3161 317.781 42.1431 317.966 41.8397 317.966C41.5392 317.966 41.3602 317.781 41.3602 317.454V316.046H41.0659V317.463C41.0659 317.969 41.4027 318.243 41.8397 318.243ZM45.1245 316.534C45.076 316.3 44.8818 316 44.3962 316C43.9987 316 43.6862 316.303 43.6862 316.64C43.6862 316.962 43.9047 317.162 44.2111 317.229L44.5176 317.296C44.7331 317.341 44.8393 317.475 44.8393 317.63C44.8393 317.818 44.6936 317.972 44.3962 317.972C44.0716 317.972 43.9016 317.751 43.8804 317.511L43.5951 317.602C43.6346 317.909 43.8804 318.243 44.3993 318.243C44.8575 318.243 45.1427 317.939 45.1427 317.605C45.1427 317.305 44.9425 317.08 44.5844 317.001L44.2627 316.932C44.0807 316.892 43.9866 316.774 43.9866 316.619C43.9866 316.419 44.1596 316.261 44.4023 316.261C44.7027 316.261 44.8332 316.473 44.8575 316.628L45.1245 316.534ZM47.4905 318.197V317.921H46.48V317.262H47.3965V316.983H46.48V316.322H47.4905V316.046H46.1827V318.197H47.4905Z"
    fill="black"/>
  <path
    d="M41.979 139.222C41.979 139.447 42.1608 139.628 42.385 139.628C42.6092 139.628 42.791 139.447 42.791 139.222C42.791 138.998 42.6092 138.816 42.385 138.816C42.1608 138.816 41.979 138.998 41.979 139.222Z"
    fill="#2E77D0"/>
  <path
    d="M41.979 137.194C41.979 137.418 42.1608 137.6 42.385 137.6C42.6092 137.6 42.791 137.418 42.791 137.194C42.791 136.97 42.6092 136.788 42.385 136.788C42.1608 136.788 41.979 136.97 41.979 137.194Z"
    fill="#2E77D0"/>
  <path
    d="M41.979 135.163C41.979 135.387 42.1608 135.569 42.385 135.569C42.6092 135.569 42.791 135.387 42.791 135.163C42.791 134.939 42.6092 134.757 42.385 134.757C42.1608 134.757 41.979 134.939 41.979 135.163Z"
    fill="#2E77D0"/>
  <path
    d="M41.979 133.134C41.979 133.358 42.1608 133.54 42.385 133.54C42.6092 133.54 42.791 133.358 42.791 133.134C42.791 132.909 42.6092 132.728 42.385 132.728C42.1608 132.728 41.979 132.909 41.979 133.134Z"
    fill="#2E77D0"/>
  <path
    d="M41.979 131.105C41.979 131.329 42.1608 131.511 42.385 131.511C42.6092 131.511 42.791 131.329 42.791 131.105C42.791 130.881 42.6092 130.699 42.385 130.699C42.1608 130.699 41.979 130.881 41.979 131.105Z"
    fill="#2E77D0"/>
  <path
    d="M41.979 129.075C41.979 129.299 42.1608 129.481 42.385 129.481C42.6092 129.481 42.791 129.299 42.791 129.075C42.791 128.851 42.6092 128.669 42.385 128.669C42.1608 128.669 41.979 128.851 41.979 129.075Z"
    fill="#2E77D0"/>
  <path
    d="M41.979 127.045C41.979 127.269 42.1608 127.451 42.385 127.451C42.6092 127.451 42.791 127.269 42.791 127.045C42.791 126.82 42.6092 126.639 42.385 126.639C42.1608 126.639 41.979 126.82 41.979 127.045Z"
    fill="#2E77D0"/>
  <path
    d="M41.979 125.017C41.979 125.241 42.1608 125.423 42.385 125.423C42.6092 125.423 42.791 125.241 42.791 125.017C42.791 124.793 42.6092 124.611 42.385 124.611C42.1608 124.611 41.979 124.793 41.979 125.017Z"
    fill="#2E77D0"/>
  <path
    d="M41.979 122.986C41.979 123.21 42.1608 123.392 42.385 123.392C42.6092 123.392 42.791 123.21 42.791 122.986C42.791 122.761 42.6092 122.58 42.385 122.58C42.1608 122.58 41.979 122.761 41.979 122.986Z"
    fill="#2E77D0"/>
  <path
    d="M41.979 120.957C41.979 121.182 42.1608 121.363 42.385 121.363C42.6092 121.363 42.791 121.182 42.791 120.957C42.791 120.733 42.6092 120.551 42.385 120.551C42.1608 120.551 41.979 120.733 41.979 120.957Z"
    fill="#2E77D0"/>
  <path
    d="M41.979 176.163C41.979 176.387 42.1608 176.569 42.385 176.569C42.6092 176.569 42.791 176.387 42.791 176.163C42.791 175.939 42.6092 175.757 42.385 175.757C42.1608 175.757 41.979 175.939 41.979 176.163Z"
    fill="#2E77D0"/>
  <path
    d="M41.979 174.134C41.979 174.358 42.1608 174.54 42.385 174.54C42.6092 174.54 42.791 174.358 42.791 174.134C42.791 173.909 42.6092 173.728 42.385 173.728C42.1608 173.728 41.979 173.909 41.979 174.134Z"
    fill="#2E77D0"/>
  <path
    d="M41.979 172.105C41.979 172.329 42.1608 172.511 42.385 172.511C42.6092 172.511 42.791 172.329 42.791 172.105C42.791 171.881 42.6092 171.699 42.385 171.699C42.1608 171.699 41.979 171.881 41.979 172.105Z"
    fill="#2E77D0"/>
  <path
    d="M41.979 170.074C41.979 170.299 42.1608 170.48 42.385 170.48C42.6092 170.48 42.791 170.299 42.791 170.074C42.791 169.85 42.6092 169.668 42.385 169.668C42.1608 169.668 41.979 169.85 41.979 170.074Z"
    fill="#2E77D0"/>
  <path
    d="M41.979 168.044C41.979 168.268 42.1608 168.45 42.385 168.45C42.6092 168.45 42.791 168.268 42.791 168.044C42.791 167.819 42.6092 167.638 42.385 167.638C42.1608 167.638 41.979 167.819 41.979 168.044Z"
    fill="#2E77D0"/>
  <path
    d="M41.979 166.014C41.979 166.238 42.1608 166.42 42.385 166.42C42.6092 166.42 42.791 166.238 42.791 166.014C42.791 165.79 42.6092 165.608 42.385 165.608C42.1608 165.608 41.979 165.79 41.979 166.014Z"
    fill="#2E77D0"/>
  <path
    d="M41.979 163.986C41.979 164.21 42.1608 164.392 42.385 164.392C42.6092 164.392 42.791 164.21 42.791 163.986C42.791 163.761 42.6092 163.58 42.385 163.58C42.1608 163.58 41.979 163.761 41.979 163.986Z"
    fill="#2E77D0"/>
  <path
    d="M41.979 161.954C41.979 162.179 42.1608 162.36 42.385 162.36C42.6092 162.36 42.791 162.179 42.791 161.954C42.791 161.73 42.6092 161.548 42.385 161.548C42.1608 161.548 41.979 161.73 41.979 161.954Z"
    fill="#2E77D0"/>
  <path
    d="M41.979 159.925C41.979 160.149 42.1608 160.331 42.385 160.331C42.6092 160.331 42.791 160.149 42.791 159.925C42.791 159.701 42.6092 159.519 42.385 159.519C42.1608 159.519 41.979 159.701 41.979 159.925Z"
    fill="#2E77D0"/>
  <path
    d="M41.979 157.897C41.979 158.121 42.1608 158.303 42.385 158.303C42.6092 158.303 42.791 158.121 42.791 157.897C42.791 157.672 42.6092 157.491 42.385 157.491C42.1608 157.491 41.979 157.672 41.979 157.897Z"
    fill="#2E77D0"/>
  <path
    d="M32.0011 147.181C32.0011 152.803 36.559 157.361 42.1815 157.361C47.8039 157.361 52.3618 152.803 52.3618 147.181C52.3618 141.558 47.8039 137 42.1815 137C36.559 137 32.0011 141.558 32.0011 147.181Z"
    fill="#2E77D0" stroke="#A0C3D2" stroke-width="3.02395"/>
  <path fill-rule="evenodd" clip-rule="evenodd"
        d="M44.7832 149.378L42.5692 147.145L44.7706 144.923L41.5182 141.693V146.085L39.6796 144.229L39.0169 144.898L41.2676 147.17L39.0044 149.454L39.6671 150.124L41.5182 148.256V152.672L44.7832 149.378ZM42.3688 143.788L43.4941 144.949L42.3688 146.085V143.788ZM42.3688 148.179L43.4941 149.34L42.3688 150.476V148.179Z"
        fill="white"/>
  <path
    d="M10.0011 317.181C10.0011 322.803 14.559 327.361 20.1815 327.361C25.8039 327.361 30.3618 322.803 30.3618 317.181C30.3618 311.558 25.8039 307 20.1815 307C14.559 307 10.0011 311.558 10.0011 317.181Z"
    fill="#2E77D0" stroke="#A0C3D2" stroke-width="3.02395"/>
  <path
    d="M52.0011 317.181C52.0011 322.803 56.559 327.361 62.1815 327.361C67.8039 327.361 72.3618 322.803 72.3618 317.181C72.3618 311.558 67.8039 307 62.1815 307C56.559 307 52.0011 311.558 52.0011 317.181Z"
    fill="#2E77D0" stroke="#A0C3D2" stroke-width="3.02395"/>
  <path fill-rule="evenodd" clip-rule="evenodd"
        d="M22.7832 319.378L20.5692 317.145L22.7706 314.923L19.5182 311.693V316.085L17.6796 314.229L17.0169 314.898L19.2676 317.17L17.0044 319.454L17.6671 320.124L19.5182 318.256V322.672L22.7832 319.378ZM20.3688 313.788L21.4941 314.949L20.3688 316.085V313.788ZM20.3688 318.179L21.4941 319.34L20.3688 320.476V318.179Z"
        fill="white"/>
  <path
    d="M19.8286 308.877C19.8286 309.101 20.0104 309.283 20.2346 309.283C20.4588 309.283 20.6406 309.101 20.6406 308.877C20.6406 308.653 20.4588 308.471 20.2346 308.471C20.0104 308.471 19.8286 308.653 19.8286 308.877Z"
    fill="#2E77D0"/>
  <path
    d="M19.8286 306.849C19.8286 307.073 20.0104 307.255 20.2346 307.255C20.4588 307.255 20.6406 307.073 20.6406 306.849C20.6406 306.625 20.4588 306.443 20.2346 306.443C20.0104 306.443 19.8286 306.625 19.8286 306.849Z"
    fill="#2E77D0"/>
  <path
    d="M19.8286 304.818C19.8286 305.042 20.0104 305.224 20.2346 305.224C20.4588 305.224 20.6406 305.042 20.6406 304.818C20.6406 304.593 20.4588 304.412 20.2346 304.412C20.0104 304.412 19.8286 304.593 19.8286 304.818Z"
    fill="#2E77D0"/>
  <path
    d="M19.8286 302.788C19.8286 303.013 20.0104 303.194 20.2346 303.194C20.4588 303.194 20.6406 303.013 20.6406 302.788C20.6406 302.564 20.4588 302.382 20.2346 302.382C20.0104 302.382 19.8286 302.564 19.8286 302.788Z"
    fill="#2E77D0"/>
  <path
    d="M19.8286 300.76C19.8286 300.984 20.0104 301.166 20.2346 301.166C20.4588 301.166 20.6406 300.984 20.6406 300.76C20.6406 300.536 20.4588 300.354 20.2346 300.354C20.0104 300.354 19.8286 300.536 19.8286 300.76Z"
    fill="#2E77D0"/>
  <path
    d="M19.8286 298.73C19.8286 298.954 20.0104 299.136 20.2346 299.136C20.4588 299.136 20.6406 298.954 20.6406 298.73C20.6406 298.506 20.4588 298.324 20.2346 298.324C20.0104 298.324 19.8286 298.506 19.8286 298.73Z"
    fill="#2E77D0"/>
  <path
    d="M19.8286 296.699C19.8286 296.924 20.0104 297.105 20.2346 297.105C20.4588 297.105 20.6406 296.924 20.6406 296.699C20.6406 296.475 20.4588 296.293 20.2346 296.293C20.0104 296.293 19.8286 296.475 19.8286 296.699Z"
    fill="#2E77D0"/>
  <path
    d="M19.8286 294.672C19.8286 294.896 20.0104 295.078 20.2346 295.078C20.4588 295.078 20.6406 294.896 20.6406 294.672C20.6406 294.447 20.4588 294.266 20.2346 294.266C20.0104 294.266 19.8286 294.447 19.8286 294.672Z"
    fill="#2E77D0"/>
  <path
    d="M19.8286 292.64C19.8286 292.865 20.0104 293.046 20.2346 293.046C20.4588 293.046 20.6406 292.865 20.6406 292.64C20.6406 292.416 20.4588 292.234 20.2346 292.234C20.0104 292.234 19.8286 292.416 19.8286 292.64Z"
    fill="#2E77D0"/>
  <path
    d="M19.8286 290.612C19.8286 290.836 20.0104 291.018 20.2346 291.018C20.4588 291.018 20.6406 290.836 20.6406 290.612C20.6406 290.388 20.4588 290.206 20.2346 290.206C20.0104 290.206 19.8286 290.388 19.8286 290.612Z"
    fill="#2E77D0"/>
  <path
    d="M19.8286 345.818C19.8286 346.042 20.0104 346.224 20.2346 346.224C20.4588 346.224 20.6406 346.042 20.6406 345.818C20.6406 345.593 20.4588 345.412 20.2346 345.412C20.0104 345.412 19.8286 345.593 19.8286 345.818Z"
    fill="#2E77D0"/>
  <path
    d="M19.8286 343.788C19.8286 344.013 20.0104 344.194 20.2346 344.194C20.4588 344.194 20.6406 344.013 20.6406 343.788C20.6406 343.564 20.4588 343.382 20.2346 343.382C20.0104 343.382 19.8286 343.564 19.8286 343.788Z"
    fill="#2E77D0"/>
  <path
    d="M19.8286 341.76C19.8286 341.984 20.0104 342.166 20.2346 342.166C20.4588 342.166 20.6406 341.984 20.6406 341.76C20.6406 341.535 20.4588 341.354 20.2346 341.354C20.0104 341.354 19.8286 341.535 19.8286 341.76Z"
    fill="#2E77D0"/>
  <path
    d="M19.8286 339.729C19.8286 339.954 20.0104 340.135 20.2346 340.135C20.4588 340.135 20.6406 339.954 20.6406 339.729C20.6406 339.505 20.4588 339.323 20.2346 339.323C20.0104 339.323 19.8286 339.505 19.8286 339.729Z"
    fill="#2E77D0"/>
  <path
    d="M19.8286 337.698C19.8286 337.923 20.0104 338.105 20.2346 338.105C20.4588 338.105 20.6406 337.923 20.6406 337.698C20.6406 337.474 20.4588 337.292 20.2346 337.292C20.0104 337.292 19.8286 337.474 19.8286 337.698Z"
    fill="#2E77D0"/>
  <path
    d="M19.8286 335.669C19.8286 335.893 20.0104 336.075 20.2346 336.075C20.4588 336.075 20.6406 335.893 20.6406 335.669C20.6406 335.444 20.4588 335.263 20.2346 335.263C20.0104 335.263 19.8286 335.444 19.8286 335.669Z"
    fill="#2E77D0"/>
  <path
    d="M19.8286 333.64C19.8286 333.865 20.0104 334.046 20.2346 334.046C20.4588 334.046 20.6406 333.865 20.6406 333.64C20.6406 333.416 20.4588 333.234 20.2346 333.234C20.0104 333.234 19.8286 333.416 19.8286 333.64Z"
    fill="#2E77D0"/>
  <path
    d="M19.8286 331.609C19.8286 331.833 20.0104 332.015 20.2346 332.015C20.4588 332.015 20.6406 331.833 20.6406 331.609C20.6406 331.385 20.4588 331.203 20.2346 331.203C20.0104 331.203 19.8286 331.385 19.8286 331.609Z"
    fill="#2E77D0"/>
  <path
    d="M19.8286 329.58C19.8286 329.804 20.0104 329.986 20.2346 329.986C20.4588 329.986 20.6406 329.804 20.6406 329.58C20.6406 329.356 20.4588 329.174 20.2346 329.174C20.0104 329.174 19.8286 329.356 19.8286 329.58Z"
    fill="#2E77D0"/>
  <path
    d="M19.8286 327.552C19.8286 327.776 20.0104 327.958 20.2346 327.958C20.4588 327.958 20.6406 327.776 20.6406 327.552C20.6406 327.327 20.4588 327.146 20.2346 327.146C20.0104 327.146 19.8286 327.327 19.8286 327.552Z"
    fill="#2E77D0"/>
  <path
    d="M62.2469 299.364C62.1196 299.364 61.9936 299.339 61.876 299.29C61.7584 299.242 61.6516 299.17 61.5616 299.08C61.4716 298.99 61.4002 298.883 61.3515 298.766C61.3027 298.648 61.2777 298.522 61.2777 298.395L61.2777 293.55L63.2158 293.55L63.2158 298.395C63.2158 298.652 63.1137 298.898 62.932 299.08C62.7503 299.262 62.5039 299.364 62.2469 299.364ZM61.7623 293.549L61.7623 289.673C61.7607 289.609 61.772 289.545 61.7956 289.484C61.8192 289.424 61.8547 289.369 61.8998 289.323C61.945 289.277 61.9989 289.24 62.0585 289.215C62.1181 289.19 62.1821 289.177 62.2467 289.177C62.3114 289.177 62.3754 289.19 62.435 289.215C62.4946 289.24 62.5485 289.277 62.5937 289.323C62.6388 289.369 62.6743 289.424 62.6979 289.484C62.7215 289.545 62.7328 289.609 62.7312 289.673L62.7312 293.549L61.7623 293.549Z"
    fill="#2E77D0"/>
  <path
    d="M61.7611 292.581L61.7611 292.097L62.73 292.097L62.73 292.581L61.7611 292.581ZM61.7611 291.128L61.7611 290.643L62.73 290.643L62.73 291.128L61.7611 291.128Z"
    fill="white"/>
  <path
    d="M62.2435 337.502C62.5004 337.503 62.7468 337.605 62.9285 337.786C63.1102 337.968 63.2123 338.214 63.2124 338.471L63.2124 343.317L61.2743 343.317L61.2743 338.471C61.2743 338.214 61.3765 337.968 61.5582 337.786C61.74 337.605 61.9865 337.502 62.2435 337.502ZM62.7278 343.317L62.7278 347.193C62.7278 347.322 62.6767 347.445 62.5859 347.536C62.495 347.627 62.3718 347.678 62.2433 347.678C62.1148 347.678 61.9916 347.627 61.9008 347.536C61.8099 347.445 61.7589 347.322 61.7589 347.193L61.7589 343.317L62.7278 343.317Z"
    fill="#2E77D0"/>
  <path
    d="M62.73 344.286L62.73 344.771L61.7611 344.771L61.7611 344.286L62.73 344.286ZM62.73 345.74L62.73 346.225L61.7611 346.225L61.7611 345.74L62.73 345.74Z"
    fill="white"/>
  <path d="M62.2456 346.951L62.2456 296.21" stroke="#2E77D0" stroke-width="0.303452"/>
  <path
    d="M59.6896 318.455H60.4205L59.1049 315H58.3253L57 318.455H57.7114L57.9989 317.665H59.4022L59.6896 318.455ZM58.7005 315.745L59.178 317.051H58.223L58.7005 315.745ZM62.6191 318.533C63.3597 318.533 63.9493 318.079 63.9493 317.232V315H63.2769V317.183C63.2769 317.636 63.0284 317.875 62.6191 317.875C62.2196 317.875 61.9662 317.636 61.9662 317.183V315H61.2938V317.232C61.2938 318.079 61.8834 318.533 62.6191 318.533ZM67.9951 315H67.2106L66.4554 316.194L65.7148 315H64.906L66.0364 316.725L64.9011 318.455H65.6904L66.4408 317.261L67.1863 318.455H68L66.8647 316.73L67.9951 315Z"
    fill="white"/>
  <path
    d="M18.9292 186.666C18.9292 184.645 20.5675 183.006 22.5885 183.006H27.6355C28.0983 183.006 28.5421 183.19 28.8693 183.517C29.1966 183.845 29.3804 184.288 29.3804 184.751V184.978C29.3804 185.215 29.4271 185.45 29.5179 185.669C29.6087 185.888 29.7418 186.087 29.9096 186.255C30.2484 186.594 30.708 186.784 31.1871 186.784H53.6835C53.9208 186.784 54.1558 186.738 54.375 186.647C54.5942 186.556 54.7933 186.423 54.9611 186.255C55.1289 186.087 55.262 185.888 55.3528 185.669C55.4436 185.45 55.4903 185.215 55.4903 184.978V184.751C55.4903 184.288 55.6741 183.845 56.0013 183.517C56.3286 183.19 56.7724 183.006 57.2351 183.006H62.2819C64.3028 183.006 65.9412 184.645 65.9412 186.666V280.104C65.9412 282.125 64.3028 283.763 62.2819 283.763H22.5885C20.5675 283.763 18.9292 282.125 18.9292 280.104V186.666Z"
    fill="none" stroke="black" stroke-width="0.151726"/>
  <path
    d="M63.3238 180.186H21.5454C18.5432 180.186 16.1094 182.62 16.1094 185.622V280.901C16.1094 283.904 18.5432 286.337 21.5454 286.337H63.3238C66.326 286.337 68.7598 283.904 68.7598 280.901V185.622C68.7598 182.62 66.326 180.186 63.3238 180.186Z"
    stroke="black" stroke-width="0.606904"/>
  <path
    d="M15.0747 194.568C15.0747 194.544 15.0794 194.521 15.0886 194.499C15.0977 194.477 15.1111 194.456 15.128 194.44C15.1449 194.423 15.165 194.409 15.1871 194.4C15.2092 194.391 15.2329 194.386 15.2568 194.386H15.806V201.942H15.2568C15.2329 201.942 15.2092 201.937 15.1871 201.928C15.165 201.919 15.1449 201.906 15.128 201.889C15.1111 201.872 15.0977 201.852 15.0886 201.83C15.0794 201.808 15.0747 201.784 15.0747 201.76V194.568ZM15.0747 204.318C15.0747 204.294 15.0794 204.27 15.0886 204.248C15.0977 204.226 15.1111 204.206 15.128 204.189C15.1449 204.172 15.165 204.159 15.1871 204.15C15.2092 204.141 15.2329 204.136 15.2568 204.136H15.806V211.692H15.2568C15.2328 211.692 15.2091 211.687 15.187 211.678C15.1649 211.669 15.1448 211.655 15.1279 211.638C15.111 211.621 15.0976 211.601 15.0885 211.579C15.0793 211.557 15.0747 211.533 15.0747 211.509V204.318Z"
    fill="black"/>
  <path
    d="M3.76904 386.388V352.387C3.76904 351.984 3.9289 351.599 4.21344 351.314C4.49798 351.029 4.8839 350.87 5.2863 350.87H78.9735C79.1728 350.87 79.3701 350.909 79.5541 350.985C79.7382 351.061 79.9055 351.173 80.0464 351.314C80.1873 351.455 80.299 351.622 80.3753 351.806C80.4515 351.99 80.4908 352.188 80.4908 352.387V392.787C80.4908 393.189 80.3309 393.575 80.0464 393.86C79.7618 394.144 79.3759 394.304 78.9735 394.304H5.2863C4.8839 394.304 4.49798 394.144 4.21344 393.86C3.9289 393.575 3.76904 393.189 3.76904 392.787V386.388Z"
    stroke="black" stroke-width="0.606904"/>
  <path
    d="M72.0099 357.845H12.6581C12.2755 357.845 11.9653 358.155 11.9653 358.538V371.614C11.9653 371.996 12.2755 372.306 12.6581 372.306H72.0099C72.3926 372.306 72.7027 371.996 72.7027 371.614V358.538C72.7027 358.155 72.3926 357.845 72.0099 357.845Z"
    stroke="black" stroke-width="0.151726"/>
  <path
    d="M66.4894 388.951C69.6983 388.951 72.2996 386.35 72.2996 383.141C72.2996 379.932 69.6983 377.331 66.4894 377.331C63.2805 377.331 60.6792 379.932 60.6792 383.141C60.6792 386.35 63.2805 388.951 66.4894 388.951Z"
    stroke="black" stroke-width="0.151726"/>
  <path
    d="M14.3235 384.368C14.89 384.368 15.3492 383.909 15.3492 383.342C15.3492 382.776 14.89 382.316 14.3235 382.316C13.7571 382.316 13.2979 382.776 13.2979 383.342C13.2979 383.909 13.7571 384.368 14.3235 384.368Z"
    fill="black" stroke="black" stroke-width="0.384474"/>
  <path
    d="M14.3265 385.525C15.5314 385.525 16.508 384.548 16.508 383.344C16.508 382.139 15.5314 381.162 14.3265 381.162C13.1217 381.162 12.145 382.139 12.145 383.344C12.145 384.548 13.1217 385.525 14.3265 385.525Z"
    stroke="black" stroke-width="0.303452"/>
  <path
    d="M54.9185 386.109C56.4459 386.109 57.6841 384.871 57.6841 383.343C57.6841 381.816 56.4459 380.578 54.9185 380.578C53.3911 380.578 52.1528 381.816 52.1528 383.343C52.1528 384.871 53.3911 386.109 54.9185 386.109Z"
    stroke="black" stroke-width="0.151726"/>
  <path
    d="M46.7974 386.109C48.3248 386.109 49.5631 384.871 49.5631 383.343C49.5631 381.816 48.3248 380.578 46.7974 380.578C45.27 380.578 44.0317 381.816 44.0317 383.343C44.0317 384.871 45.27 386.109 46.7974 386.109Z"
    stroke="black" stroke-width="0.151726"/>
  <path
    d="M38.6817 386.109C40.2091 386.109 41.4473 384.871 41.4473 383.343C41.4473 381.816 40.2091 380.578 38.6817 380.578C37.1542 380.578 35.916 381.816 35.916 383.343C35.916 384.871 37.1542 386.109 38.6817 386.109Z"
    stroke="black" stroke-width="0.151726"/>
  <path
    d="M30.5606 386.109C32.088 386.109 33.3262 384.871 33.3262 383.343C33.3262 381.816 32.088 380.578 30.5606 380.578C29.0332 380.578 27.7949 381.816 27.7949 383.343C27.7949 384.871 29.0332 386.109 30.5606 386.109Z"
    stroke="black" stroke-width="0.151726"/>
  <path
    d="M43.0273 20.101C40.815 20.101 39.0217 20.5901 39.0217 21.1935C39.0217 21.797 40.815 22.2861 43.0273 22.2861C45.2396 22.2861 47.0332 21.797 47.0332 21.1935C47.0332 20.5901 45.2396 20.101 43.0273 20.101Z"
    stroke="black" stroke-width="0.125301" stroke-miterlimit="10" stroke-linecap="round" stroke-linejoin="round"/>
  <path
    d="M40.174 10.235C40.174 9.50291 41.4994 8.90146 43.1304 8.90146C44.7612 8.90146 46.0868 9.49419 46.0868 10.235M47.8223 20.9027C47.8223 21.7132 45.7204 22.3755 43.1304 22.3755C40.5403 22.3755 38.4386 21.7132 38.4386 20.9027L47.8223 20.9027ZM47.3165 18.7587C47.6392 18.9592 47.8223 19.1857 47.8223 19.4299L47.3165 18.7587ZM38.4386 19.4299C38.4386 19.1857 38.6217 18.9592 38.9444 18.7587L38.4386 19.4299ZM47.8223 19.4299L47.8223 20.9027L47.8223 19.4299ZM38.4388 19.4299L38.4388 20.9027L38.4388 19.4299ZM46.0868 16.519C46.8455 16.7542 47.3076 17.0853 47.3076 17.4513L46.0868 16.519ZM38.9444 17.4513C38.9444 17.0853 39.4154 16.7629 40.1653 16.5277L38.9444 17.4513ZM47.3163 17.4513L47.3163 18.7674L47.3163 17.4513ZM38.9448 17.4513L38.9448 18.7674L38.9448 17.4513ZM40.1736 16.5275L40.1736 10.2352L40.1736 16.5275ZM46.0868 10.2352L46.0868 16.5188L46.0868 10.2352Z"
    stroke="black" stroke-width="0.375904" stroke-linecap="round" stroke-linejoin="round"/>
  <path
    d="M42.3582 8.90185L42.3582 8.41438C42.3582 8.07826 42.6818 7.80919 43.0865 7.80919C43.4911 7.80919 43.8148 8.07826 43.8148 8.41438L43.8148 8.90186L42.3582 8.90185ZM43.1284 0.999927C41.8427 0.999927 40.6721 1.16996 39.8178 1.4492C39.3916 1.58851 39.0353 1.75792 38.7822 1.95328C38.5315 2.14719 38.3593 2.38574 38.3593 2.66331C38.3593 2.9411 38.5315 3.17965 38.7822 3.37356C39.0353 3.56892 39.3916 3.73812 39.8178 3.87743C40.6721 4.15667 41.8427 4.32691 43.1284 4.32691C44.4141 4.32691 45.5845 4.15667 46.439 3.87743C46.8652 3.73812 47.2217 3.56892 47.4743 3.37356C47.7254 3.17965 47.8975 2.9411 47.8975 2.66331C47.8975 2.38574 47.7251 2.14719 47.4743 1.95328C47.2215 1.75792 46.8652 1.58851 46.439 1.4492C45.5847 1.16996 44.4141 0.999927 43.1284 0.999927Z"
    stroke="black" stroke-width="0.375904" stroke-linecap="round" stroke-linejoin="round"/>
  <path
    d="M43.0946 1.7715C42.0175 1.7715 41.0405 1.89627 40.3311 2.0989C39.9767 2.20021 39.686 2.32167 39.483 2.4589C39.2816 2.59489 39.1545 2.75454 39.1545 2.93434C39.1545 3.11413 39.2816 3.27378 39.483 3.40976C39.686 3.54699 39.9767 3.66845 40.3311 3.76976C41.0405 3.97239 42.0175 4.09717 43.0946 4.09717C44.1717 4.09717 45.1487 3.97239 45.8581 3.76976C46.2125 3.66845 46.503 3.54699 46.7062 3.40976C46.9076 3.27378 47.0347 3.11413 47.0347 2.93434C47.0347 2.75454 46.9076 2.59489 46.7062 2.4589C46.503 2.32167 46.2125 2.20022 45.8581 2.0989C45.1487 1.89627 44.1717 1.7715 43.0946 1.7715V1.7715Z"
    stroke="black" stroke-width="0.125301" stroke-linecap="round" stroke-linejoin="round"/>
  <path
    d="M40.171 16.458C40.9298 16.2226 41.9764 16.0743 43.1274 16.0743M43.1276 16.0743C44.2786 16.0743 45.3252 16.2226 46.084 16.458L43.1276 16.0743Z"
    stroke="black" stroke-width="0.125301" stroke-miterlimit="10" stroke-linecap="round" stroke-linejoin="round"/>
  <path d="M47.397 18.916C46.0616 18.3698 42.4807 17.6049 38.8392 18.916" stroke="black" stroke-width="0.125301"/>
  <path d="M44.0254 65.4221L42.2974 65.4221L42.2974 66.6128L44.0254 66.6128L44.0254 65.4221V65.4221Z" stroke="black"
        stroke-width="0.125301" stroke-miterlimit="10" stroke-linecap="round" stroke-linejoin="round"/>
  <path
    d="M44.3301 65.4199L41.9839 65.4199L41.9839 62.3138C41.9839 62.1477 42.1234 62.008 42.2897 62.008L44.0245 62.008C44.1053 62.009 44.1825 62.0415 44.2396 62.0987C44.2967 62.1558 44.3292 62.2331 44.3301 62.3138L44.3301 65.4199Z"
    fill="black" stroke="black" stroke-width="0.375904" stroke-linecap="round" stroke-linejoin="round"/>
  <path d="M42.2933 26.6934L44.0215 26.6934L44.0215 25.5029L42.2933 25.5029L42.2933 26.6934Z" stroke="black"
        stroke-width="0.125301" stroke-miterlimit="10" stroke-linecap="round" stroke-linejoin="round"/>
  <path
    d="M41.9841 26.6955L44.3301 26.6955L44.3301 29.8016C44.3292 29.8824 44.2967 29.9596 44.2396 30.0168C44.1825 30.0739 44.1053 30.1065 44.0245 30.1074L42.2897 30.1074C42.1236 30.1074 41.9841 29.9679 41.9841 29.8016L41.9841 26.6955Z"
    fill="black" stroke="black" stroke-width="0.375904" stroke-linecap="round" stroke-linejoin="round"/>
  <path d="M43.0981 61.9517L43.0981 30.1523" stroke="black" stroke-width="0.751807"/>
</svg>
